<svg width="24" height="24" viewBox="0 0 24 24" fill="none" xmlns="http://www.w3.org/2000/svg">
<path d="M11.5005 8.625C10.0039 8.625 8.79183 7.36641 8.79183 5.8125C8.79183 4.25859 10.0039 3 11.5005 3C12.997 3 14.2091 4.25859 14.2091 5.8125C14.2091 7.36641 12.997 8.625 11.5005 8.625ZM13.3085 17.3719L12.4417 16.2469L14.524 14.4469L16.0781 16.4648C16.4641 16.9641 16.4742 17.6742 16.1052 18.1875L14.48 20.4375C14.2125 20.8066 13.8062 21 13.3965 21C13.1155 21 12.8277 20.9086 12.5839 20.7188C11.9846 20.2547 11.8661 19.3723 12.3131 18.75L13.3085 17.3719ZM8.47695 14.4469L10.5592 16.2469L9.69245 17.3719L10.6879 18.75C11.1348 19.3723 11.0163 20.2547 10.417 20.7188C10.1732 20.9086 9.88883 21 9.60442 21C9.19135 21 8.78505 20.8066 8.52096 20.4375L6.89578 18.1875C6.52672 17.6742 6.53688 16.9641 6.92286 16.4648L8.47695 14.4469ZM5.24689 8.09766C5.67689 7.46133 6.51995 7.31016 7.13278 7.75312L8.50742 8.75508C10.2917 10.0559 12.7126 10.0559 14.4935 8.75508L15.8681 7.75664C16.481 7.31016 17.324 7.46484 17.754 8.09766C18.184 8.73398 18.0351 9.60938 17.4256 10.0559L16.051 11.0578C15.4754 11.4762 14.8524 11.7926 14.2091 12.0387V13.125H8.79183V12.0422C8.14852 11.7961 7.52554 11.4797 6.94995 11.0613L5.57531 10.0594C4.96248 9.60938 4.81689 8.73398 5.24689 8.09766Z" fill="#00A7E1"/>
</svg>
