<svg width="24" height="24" viewBox="0 0 24 24" fill="none" xmlns="http://www.w3.org/2000/svg">
<path d="M13.2161 9.625C12.5066 9.625 9.46066 9.69461 7.5 12.6467V9.625C7.5 7.76383 5.98617 6.25 4.125 6.25C3.50379 6.25 3 6.75379 3 7.375C3 7.99621 3.50379 8.5 4.125 8.5C4.74516 8.5 5.25 9.00484 5.25 9.625V18.625C5.25 19.866 6.25898 20.875 7.5 20.875H13.6875C13.9983 20.875 14.25 20.6233 14.25 20.3125V19.75C14.25 19.1288 13.7462 18.625 13.125 18.625H12L16.5 15.25V20.3125C16.5 20.6233 16.7517 20.875 17.0625 20.875H18.1875C18.4983 20.875 18.75 20.6233 18.75 20.3125V13.0654C18.3882 13.1593 18.0156 13.225 17.625 13.225C15.452 13.225 13.6341 11.6764 13.2161 9.625ZM18.75 6.25H16.5L14.25 4V8.725C14.25 10.589 15.761 12.1 17.625 12.1C19.489 12.1 21 10.589 21 8.725V4L18.75 6.25ZM16.2188 9.0625C15.908 9.0625 15.6562 8.81078 15.6562 8.5C15.6562 8.18922 15.908 7.9375 16.2188 7.9375C16.5295 7.9375 16.7812 8.18922 16.7812 8.5C16.7812 8.81078 16.5295 9.0625 16.2188 9.0625ZM19.0312 9.0625C18.7205 9.0625 18.4688 8.81078 18.4688 8.5C18.4688 8.18922 18.7205 7.9375 19.0312 7.9375C19.342 7.9375 19.5938 8.18922 19.5938 8.5C19.5938 8.81078 19.342 9.0625 19.0312 9.0625Z" fill="#00A7E1"/>
</svg>
