<svg width="24" height="24" viewBox="0 0 24 24" fill="none" xmlns="http://www.w3.org/2000/svg">
<path d="M9.24631 5.53125C9.24631 4.13326 10.387 3 11.7941 3C13.2012 3 14.3419 4.13326 14.3419 5.53125C14.3419 6.9292 13.2012 8.0625 11.7941 8.0625C10.387 8.0625 9.24631 6.9292 9.24631 5.53125ZM18.2566 5.57952C17.8144 5.14017 17.0974 5.14017 16.6552 5.57952L13.5898 8.625H9.99841L6.93302 5.57952C6.49084 5.14017 5.77385 5.14017 5.33166 5.57952C4.88945 6.01887 4.88945 6.73117 5.33166 7.17052L8.68014 10.4972V19.875C8.68014 20.4963 9.18711 21 9.81249 21H10.3787C11.004 21 11.511 20.4963 11.511 19.875V15.9375H12.0772V19.875C12.0772 20.4963 12.5842 21 13.2095 21H13.7757C14.4011 21 14.9081 20.4963 14.9081 19.875V10.4972L18.2566 7.17048C18.6988 6.73113 18.6988 6.01887 18.2566 5.57952Z" fill="#00A7E1"/>
</svg>
