<svg width="24" height="24" viewBox="0 0 24 24" fill="none" xmlns="http://www.w3.org/2000/svg">
<path d="M12.4191 10.3334L18.6666 12.5646V21.6667C18.6666 21.8435 18.5964 22.0131 18.4714 22.1381C18.3464 22.2631 18.1768 22.3334 18 22.3334H15.3333C15.1565 22.3334 14.9869 22.2631 14.8619 22.1381C14.7369 22.0131 14.6666 21.8435 14.6666 21.6667V17H7.99998V21.6667C7.99998 21.8435 7.92974 22.0131 7.80472 22.1381C7.67969 22.2631 7.51012 22.3334 7.33331 22.3334H4.66665C4.48984 22.3334 4.32027 22.2631 4.19524 22.1381C4.07022 22.0131 3.99998 21.8435 3.99998 21.6667V12.7538C2.45165 12.2017 1.33331 10.7359 1.33331 9.00002C1.33331 8.6464 1.47379 8.30726 1.72384 8.05721C1.97389 7.80716 2.31302 7.66669 2.66665 7.66669C3.02027 7.66669 3.35941 7.80716 3.60946 8.05721C3.8595 8.30726 3.99998 8.6464 3.99998 9.00002C4.00064 9.35344 4.14133 9.69219 4.39123 9.9421C4.64114 10.192 4.97989 10.3327 5.33331 10.3334H12.4191ZM22.6666 5.66668V7.00002C22.6666 7.70726 22.3857 8.38554 21.8856 8.88564C21.3855 9.38574 20.7072 9.66669 20 9.66669H18.6666V11.1492L13.3333 9.2446V3.00001C13.3333 2.40626 14.0508 2.10876 14.4712 2.52876L15.6079 3.66668H17.8425C18.2971 3.66668 18.8321 3.99668 19.035 4.40376L19.3333 5.00001H22C22.1768 5.00001 22.3464 5.07025 22.4714 5.19528C22.5964 5.3203 22.6666 5.48987 22.6666 5.66668ZM18 5.66668C18 5.53483 17.9609 5.40593 17.8876 5.2963C17.8144 5.18667 17.7103 5.10122 17.5884 5.05076C17.4666 5.0003 17.3326 4.9871 17.2033 5.01282C17.0739 5.03855 16.9551 5.10204 16.8619 5.19528C16.7687 5.28851 16.7052 5.4073 16.6795 5.53662C16.6537 5.66594 16.6669 5.79999 16.7174 5.9218C16.7679 6.04362 16.8533 6.14774 16.9629 6.221C17.0726 6.29425 17.2015 6.33335 17.3333 6.33335C17.5101 6.33335 17.6797 6.26311 17.8047 6.13809C17.9297 6.01306 18 5.84349 18 5.66668Z" fill="#00A7E1"/>
</svg>
